<svg width="122" height="141" viewBox="0 0 122 141" fill="none" xmlns="http://www.w3.org/2000/svg">
<g clip-path="url(#clip0)">
<path fill-rule="evenodd" clip-rule="evenodd" d="M62.164 140.974C47.1794 140.979 32.6974 135.59 21.3852 125.798C10.0731 116.007 2.69254 102.473 0.603066 87.6892C-1.48641 72.9052 1.85593 57.8669 10.0143 45.3439C18.1727 32.8208 30.5977 23.6565 45.0012 19.5387C45.5603 19.3791 46.1521 19.3715 46.7152 19.5168C47.2783 19.6621 47.792 19.9549 48.2031 20.3648C48.6143 20.7747 48.9078 21.2867 49.0533 21.8478C49.1987 22.4089 49.1908 22.9986 49.0302 23.5555C46.259 33.0717 46.1028 43.1546 48.5782 52.7514C51.0535 62.3481 56.0695 71.1067 63.1024 78.1125C70.1352 85.1182 78.9269 90.1142 88.5593 92.5786C98.1918 95.0431 108.312 94.8856 117.862 92.1226C118.421 91.9627 119.012 91.9548 119.575 92.0998C120.138 92.2449 120.651 92.5375 121.062 92.9473C121.473 93.3572 121.766 93.8691 121.911 94.4301C122.056 94.991 122.047 95.5804 121.886 96.1368C118.126 109.034 110.276 120.372 99.5111 128.454C88.7457 136.536 75.6433 140.928 62.164 140.974Z" fill="#00B4F1" fill-opacity="0.75"/>
<path fill-rule="evenodd" clip-rule="evenodd" d="M80.7406 17.4866C79.9885 20.2431 78.7555 20.2431 78.0034 17.4866C77.5067 16.0018 76.6698 14.6526 75.5591 13.5459C74.4483 12.4392 73.0941 11.6054 71.6038 11.1105C68.8372 10.3612 68.8372 9.13256 71.6038 8.38321C73.0941 7.88835 74.4483 7.05455 75.5591 5.94784C76.6698 4.84114 77.5067 3.49187 78.0034 2.00704C78.7555 -0.74941 79.9885 -0.74941 80.7406 2.00704C81.2373 3.49187 82.0743 4.84114 83.1851 5.94784C84.2958 7.05455 85.6499 7.88835 87.1402 8.38321C89.9067 9.13256 89.9067 10.3612 87.1402 11.1105C85.6499 11.6054 84.2958 12.4392 83.1851 13.5459C82.0743 14.6526 81.2373 16.0018 80.7406 17.4866Z" fill="white"/>
<path fill-rule="evenodd" clip-rule="evenodd" d="M103.123 60.0885C101.98 64.2642 100.115 64.2642 98.9746 60.0885C98.2217 57.8385 96.9536 55.7941 95.2704 54.1171C93.5872 52.44 91.5352 51.1764 89.277 50.4264C85.086 49.2904 85.086 47.4316 89.277 46.293C91.5348 45.543 93.5864 44.2798 95.2696 42.6033C96.9527 40.9267 98.2212 38.8828 98.9746 36.6335C100.115 32.4551 101.98 32.4551 103.123 36.6335C103.876 38.8828 105.144 40.9266 106.827 42.6032C108.509 44.2797 110.56 45.543 112.818 46.293C117.012 47.4316 117.012 49.2904 112.818 50.4264C110.56 51.1764 108.508 52.4401 106.826 54.1171C105.143 55.7942 103.875 57.8386 103.123 60.0885Z" fill="white"/>
<path fill-rule="evenodd" clip-rule="evenodd" d="M115.543 18.419C114.97 20.527 114.03 20.527 113.457 18.419C113.079 17.2835 112.441 16.2517 111.595 15.4053C110.748 14.559 109.717 13.9213 108.581 13.5429C106.473 12.9698 106.473 12.0302 108.581 11.4572C109.717 11.0787 110.748 10.4411 111.595 9.59473C112.441 8.74837 113.079 7.71652 113.457 6.581C114.03 4.473 114.97 4.473 115.543 6.581C115.921 7.71652 116.559 8.74837 117.405 9.59473C118.252 10.4411 119.283 11.0787 120.419 11.4572C122.527 12.0302 122.527 12.9698 120.419 13.5429C119.283 13.9213 118.252 14.559 117.405 15.4053C116.559 16.2517 115.921 17.2835 115.543 18.419Z" fill="white"/>
</g>
<defs>
<clipPath id="clip0">
<rect width="122" height="141" fill="white"/>
</clipPath>
</defs>
</svg>
